<?xml version="1.0" standalone="no"?>
<!DOCTYPE svg PUBLIC "-//W3C//DTD SVG 20010904//EN"
 "http://www.w3.org/TR/2001/REC-SVG-20010904/DTD/svg10.dtd">
<svg version="1.0" xmlns="http://www.w3.org/2000/svg"
 width="700.000000pt" height="700.000000pt" viewBox="0 0 700.000000 700.000000"
 preserveAspectRatio="xMidYMid meet">
<metadata>
Created by potrace 1.11, written by Peter Selinger 2001-2013
</metadata>
<g transform="translate(0.000000,700.000000) scale(0.100000,-0.100000)"
fill="#000000" stroke="none">
<path d="M3279 6996 c-2 -2 -44 -6 -92 -10 -190 -13 -434 -58 -657 -122 -630
-179 -1233 -562 -1655 -1049 -33 -38 -68 -79 -78 -90 -38 -42 -157 -204 -224
-305 -194 -293 -345 -624 -443 -970 -42 -150 -93 -403 -105 -525 -4 -38 -10
-79 -12 -90 -13 -53 -10 -558 3 -685 59 -558 237 -1065 537 -1535 369 -576
907 -1035 1542 -1316 l130 -58 3 1525 2 1524 708 0 707 0 134 -372 c74 -205
181 -503 238 -663 58 -159 153 -425 213 -590 59 -165 142 -397 184 -515 43
-118 88 -244 101 -280 14 -36 70 -190 125 -344 55 -153 102 -282 105 -286 3
-5 26 -1 50 8 l45 16 0 1513 0 1513 335 0 c184 0 335 -3 335 -7 1 -5 1 -601 2
-1325 0 -982 3 -1316 12 -1311 13 8 169 125 176 133 3 3 37 32 75 64 448 373
824 921 1026 1493 67 190 136 457 154 596 3 26 10 69 14 95 25 134 35 574 18
782 -33 398 -149 826 -327 1196 -511 1070 -1539 1817 -2700 1964 -47 6 -98 13
-115 16 -37 7 -560 16 -566 10z"/>
<path d="M2906 1657 c1 -870 2 -1587 3 -1593 1 -6 22 -14 49 -18 26 -3 58 -8
72 -10 149 -24 254 -31 475 -30 181 0 350 11 445 30 8 1 27 3 42 3 l27 1 -44
127 c-24 71 -83 241 -130 378 -48 138 -113 327 -145 420 -32 94 -91 262 -130
375 -39 113 -100 288 -135 390 -35 102 -100 291 -145 420 -184 530 -276 797
-328 953 -26 75 -49 137 -52 137 -3 0 -4 -712 -4 -1583z"/>
</g>
</svg>
