<?xml version="1.0" encoding="utf-8"?>
<!-- Generator: Adobe Illustrator 16.0.0, SVG Export Plug-In . SVG Version: 6.00 Build 0)  -->
<!DOCTYPE svg PUBLIC "-//W3C//DTD SVG 1.1//EN" "http://www.w3.org/Graphics/SVG/1.1/DTD/svg11.dtd">
<svg version="1.1" id="Слой_1" xmlns="http://www.w3.org/2000/svg" xmlns:xlink="http://www.w3.org/1999/xlink" x="0px" y="0px"
	 width="126.448px" height="126.427px" viewBox="0 0 126.448 126.427" enable-background="new 0 0 126.448 126.427"
	 xml:space="preserve">
<g>
	<path fill-rule="evenodd" clip-rule="evenodd" fill="#DF2032" d="M63.2,0
		c34.936,0,63.248,28.307,63.248,63.211c0,21.345-10.604,40.18-26.822,51.623V66.99H87.391v54.626l-1.646,0.605L65.869,66.99H40.268
		v55.067C16.712,112.866,0,90.014,0,63.21C0,28.307,28.311,0,63.2,0 M52.496,125.451c3.483,0.591,7.044,0.976,10.704,0.976
		c3.191,0,6.322-0.313,9.391-0.777L52.496,67.546V125.451z"/>
	<path fill-rule="evenodd" clip-rule="evenodd" fill="#DF2032" d="M63.2,0
		c34.936,0,63.248,28.307,63.248,63.211c0,21.345-10.604,40.18-26.822,51.623V66.99H87.391v54.626l-1.646,0.605L65.869,66.99H40.268
		v55.067C16.712,112.866,0,90.014,0,63.21C0,28.307,28.311,0,63.2,0 "/>
</g>
</svg>
