<?xml version="1.0" encoding="utf-8"?>
<!-- Generator: Adobe Illustrator 16.0.0, SVG Export Plug-In . SVG Version: 6.00 Build 0)  -->
<!DOCTYPE svg PUBLIC "-//W3C//DTD SVG 1.1//EN" "http://www.w3.org/Graphics/SVG/1.1/DTD/svg11.dtd">
<svg version="1.1" id="Слой_1" xmlns="http://www.w3.org/2000/svg" xmlns:xlink="http://www.w3.org/1999/xlink" x="0px" y="0px"
	 width="636.921px" height="109.908px" viewBox="0 0 636.921 109.908" enable-background="new 0 0 636.921 109.908"
	 xml:space="preserve">
<g>
	
	<path  fill-rule="evenodd" clip-rule="evenodd"  d="M629.158,33.145L629.158,33.145
		c-0.524,2.41-1.384,4.537-2.572,6.36c-1.197,1.842-2.805,3.291-4.777,4.37c-1.966,1.079-4.395,1.616-7.284,1.616
		c-2.909,0-5.351-0.491-7.284-1.48c-1.945-0.983-3.471-2.373-4.635-4.158c-1.138-1.777-1.966-3.897-2.431-6.359
		c-0.503-2.456-0.75-5.152-0.75-8.073c0-2.636,0.28-5.157,0.801-7.555c0.531-2.399,1.392-4.493,2.606-6.29
		c1.215-1.796,2.792-3.232,4.738-4.311c1.938-1.072,4.35-1.609,7.232-1.609c2.85,0,5.269,0.504,7.206,1.498
		c1.939,1.003,3.498,2.393,4.654,4.176c1.171,1.785,1.997,3.886,2.495,6.303c0.504,2.429,0.769,5.042,0.769,7.86
		C629.927,28.188,629.662,30.74,629.158,33.145 M635.582,14.329L635.582,14.329c-0.878-3.109-2.217-5.725-4.045-7.847
		c-1.798-2.112-4.046-3.723-6.756-4.82C622.068,0.557,618.841,0,615.189,0c-3.801,0-7.115,0.614-9.946,1.836
		c-2.852,1.215-5.236,2.948-7.116,5.19c-1.887,2.236-3.334,4.964-4.273,8.163c-0.942,3.206-1.408,6.775-1.408,10.69
		c0,4.104,0.414,7.725,1.3,10.886c0.857,3.147,2.183,5.791,3.968,7.918c1.79,2.132,4.04,3.749,6.781,4.86
		c2.713,1.118,5.958,1.681,9.692,1.681c3.803,0,7.132-0.622,9.949-1.823c2.862-1.228,5.222-2.974,7.104-5.237
		c1.887-2.268,3.296-5.022,4.265-8.253c0.938-3.218,1.417-6.851,1.417-10.871C636.922,21.013,636.468,17.446,635.582,14.329
		 M580.771,48.736L580.771,48.736c-0.031-0.261-0.192-0.731-0.438-1.404l-4.688-11.834c-0.673-1.674-1.299-3.096-1.964-4.293
		c-0.667-1.188-1.409-2.209-2.19-3.05c-0.809-0.854-1.667-1.557-2.606-2.14c-0.943-0.581-2.002-1.085-3.218-1.519v-0.077
		c1.053-0.31,2.004-0.724,2.863-1.248c0.827-0.524,1.629-1.194,2.326-2.002c0.719-0.808,1.378-1.772,1.997-2.902
		c0.609-1.132,1.189-2.47,1.746-4.035l3.961-10.341c0.163-0.465,0.279-0.866,0.356-1.214l0.135-0.944l-0.11-0.544l-0.471-0.381
		l-0.995-0.226c-0.421-0.053-0.937-0.084-1.609-0.084c-0.717,0-1.292,0.039-1.744,0.11c-0.44,0.052-0.804,0.161-1.048,0.284
		l-0.581,0.499l-0.313,0.685l-3.766,10.852c-0.558,1.563-1.171,2.915-1.824,4.052c-0.698,1.144-1.472,2.081-2.359,2.831
		c-0.892,0.737-1.905,1.292-3.044,1.667c-1.17,0.369-2.502,0.556-4.053,0.556h-2.766V1.693l-0.148-0.504l-0.549-0.361l-0.991-0.22
		c-0.452-0.071-0.976-0.11-1.615-0.11c-0.605,0-1.138,0.039-1.576,0.11c-0.445,0.052-0.775,0.136-1.022,0.22l-0.562,0.361
		l-0.128,0.504v47.798l0.128,0.536l0.562,0.363c0.247,0.09,0.577,0.174,1.022,0.232c0.438,0.064,0.971,0.098,1.576,0.098
		c0.64,0,1.163-0.034,1.615-0.098l0.991-0.232l0.549-0.363l0.148-0.536V27.723h2.766c1.551,0,2.942,0.187,4.164,0.542
		c1.214,0.362,2.319,0.918,3.289,1.674c0.951,0.757,1.804,1.713,2.553,2.857c0.749,1.163,1.414,2.559,2.017,4.195l4.602,12.151
		l0.313,0.717l0.639,0.472c0.238,0.129,0.601,0.233,1.053,0.291c0.466,0.064,1.046,0.098,1.79,0.098
		c0.647,0,1.171-0.028,1.609-0.079c0.447-0.051,0.776-0.128,1.027-0.225l0.525-0.389l0.142-0.575L580.771,48.736z M529.813,1.856
		L529.813,1.856l-0.16-0.506l-0.536-0.399c-0.246-0.123-0.575-0.207-1.023-0.253c-0.412-0.058-0.943-0.077-1.519-0.077
		c-0.697,0-1.229,0.019-1.673,0.077c-0.414,0.046-0.743,0.13-0.989,0.253l-0.563,0.399l-0.155,0.506V28.84
		c0,2.023,0,4.13,0.024,6.328c0,2.192,0.021,4.304,0.079,6.322h-0.025c-0.613-1.197-1.195-2.399-1.798-3.588
		c-0.612-1.189-1.221-2.404-1.854-3.633c-0.615-1.233-1.255-2.488-1.92-3.754c-0.659-1.268-1.358-2.567-2.081-3.897l-11.66-21.842
		c-0.44-0.795-0.833-1.454-1.217-1.984c-0.395-0.524-0.78-0.936-1.201-1.228c-0.408-0.296-0.854-0.51-1.384-0.633
		c-0.522-0.129-1.163-0.194-1.912-0.194h-3.271c-0.69,0-1.325,0.214-1.906,0.654c-0.581,0.438-0.865,1.163-0.865,2.184v45.916
		l0.174,0.524l0.524,0.375c0.22,0.09,0.55,0.174,1,0.232c0.413,0.064,0.931,0.098,1.577,0.098c0.667,0,1.189-0.034,1.604-0.098
		l1.028-0.232l0.555-0.375l0.13-0.524V19.456c0-1.895,0-3.802-0.021-5.728c-0.03-1.925-0.057-3.807-0.109-5.648h0.079
		c0.689,1.519,1.439,3.07,2.242,4.679c0.809,1.591,1.607,3.122,2.41,4.59l15.169,28.296c0.52,0.989,1.016,1.817,1.463,2.462
		c0.471,0.634,0.942,1.145,1.414,1.514c0.439,0.373,0.943,0.626,1.468,0.769c0.498,0.148,1.104,0.212,1.803,0.212h2.185l1.028-0.148
		l0.944-0.504l0.665-0.887c0.193-0.36,0.277-0.793,0.277-1.304V1.856z M476.632,46.466L476.632,46.466l-0.276-0.84l-0.439-0.478
		l-0.55-0.155h-19.732V27.185h16.707l0.55-0.135l0.419-0.432l0.246-0.815c0.065-0.33,0.084-0.724,0.084-1.19
		c0-0.491-0.019-0.912-0.084-1.267l-0.246-0.852l-0.419-0.473l-0.55-0.182h-16.707V6.231h19.474l0.551-0.155l0.393-0.479
		l0.247-0.839c0.084-0.343,0.115-0.751,0.115-1.217c0-0.509-0.031-0.949-0.115-1.286l-0.247-0.864l-0.393-0.499l-0.551-0.155
		h-23.604c-0.615,0-1.164,0.201-1.694,0.6c-0.522,0.389-0.774,1.087-0.774,2.089v44.372c0,1.002,0.252,1.7,0.774,2.088
		c0.53,0.407,1.079,0.607,1.694,0.607h23.863l0.55-0.162l0.439-0.498l0.276-0.865c0.052-0.342,0.084-0.751,0.084-1.209
		C476.716,47.248,476.684,46.815,476.632,46.466 M431.078,1.733L431.078,1.733l-0.149-0.544l-0.549-0.361
		c-0.251-0.084-0.589-0.168-1.008-0.22c-0.427-0.071-0.962-0.11-1.604-0.11c-0.588,0-1.085,0.039-1.511,0.11
		c-0.427,0.052-0.764,0.136-1.041,0.22l-0.575,0.361l-0.174,0.544v47.758l0.154,0.536l0.537,0.363
		c0.258,0.09,0.607,0.174,1.032,0.232c0.436,0.064,0.972,0.098,1.577,0.098c0.643,0,1.178-0.034,1.604-0.098
		c0.419-0.058,0.757-0.142,1.008-0.232l0.549-0.363l0.149-0.536V1.733z M409.297,31.399L409.297,31.399
		c-0.646-1.454-1.506-2.702-2.567-3.774c-1.071-1.053-2.28-1.984-3.639-2.766c-1.35-0.775-2.741-1.499-4.143-2.153
		c-1.421-0.652-2.805-1.299-4.155-1.939c-1.365-0.639-2.579-1.35-3.64-2.114c-1.067-0.769-1.918-1.654-2.561-2.649
		c-0.639-1.002-0.956-2.191-0.956-3.58c0-0.951,0.161-1.848,0.498-2.69c0.335-0.846,0.834-1.577,1.499-2.191
		c0.667-0.621,1.513-1.105,2.541-1.486c1.021-0.368,2.23-0.557,3.606-0.557c1.492,0,2.83,0.189,4.021,0.557
		c1.195,0.381,2.224,0.788,3.103,1.233c0.866,0.453,1.603,0.854,2.203,1.209c0.607,0.363,1.041,0.537,1.332,0.537l0.484-0.168
		l0.33-0.537l0.169-0.911c0.038-0.355,0.05-0.762,0.05-1.227c0-0.486-0.012-0.88-0.033-1.197l-0.121-0.782l-0.192-0.537l-0.481-0.58
		c-0.244-0.241-0.749-0.563-1.518-0.957c-0.763-0.401-1.642-0.762-2.629-1.074c-0.985-0.322-2.043-0.581-3.156-0.775
		C398.229,0.104,397.12,0,396.021,0c-2.158,0-4.163,0.291-6.019,0.867c-1.862,0.581-3.463,1.421-4.807,2.526
		c-1.346,1.1-2.399,2.463-3.155,4.086c-0.763,1.634-1.131,3.483-1.131,5.564c0,2.023,0.321,3.762,0.976,5.211
		c0.658,1.447,1.507,2.7,2.565,3.78c1.041,1.079,2.243,2.009,3.567,2.812c1.332,0.788,2.702,1.511,4.118,2.166
		c1.409,0.659,2.786,1.298,4.123,1.925c1.357,0.634,2.546,1.325,3.607,2.074c1.054,0.757,1.888,1.636,2.54,2.631
		c0.626,1.002,0.956,2.204,0.956,3.621c0,1.311-0.232,2.475-0.698,3.503c-0.458,1.02-1.111,1.887-1.971,2.59
		c-0.865,0.706-1.889,1.248-3.077,1.637c-1.189,0.38-2.514,0.567-3.942,0.567c-1.893,0-3.575-0.219-5.015-0.665
		c-1.455-0.445-2.69-0.93-3.724-1.441c-1.015-0.51-1.855-0.988-2.508-1.422c-0.652-0.44-1.158-0.653-1.519-0.653l-0.537,0.136
		L379.984,42l-0.233,0.891c-0.051,0.383-0.077,0.848-0.077,1.411c0,0.788,0.072,1.422,0.212,1.9
		c0.138,0.471,0.363,0.864,0.655,1.176c0.297,0.304,0.821,0.678,1.583,1.112c0.749,0.432,1.687,0.86,2.799,1.266
		c1.118,0.414,2.384,0.757,3.806,1.033c1.43,0.292,2.969,0.435,4.641,0.435c2.381,0,4.597-0.325,6.666-0.964
		c2.061-0.639,3.857-1.596,5.383-2.864c1.526-1.278,2.715-2.817,3.582-4.633c0.859-1.816,1.279-3.905,1.279-6.237
		C410.279,34.555,409.956,32.847,409.297,31.399 M369.105,48.736L369.105,48.736c-0.051-0.261-0.199-0.731-0.465-1.404
		l-4.685-11.834c-0.642-1.674-1.294-3.096-1.959-4.293c-0.672-1.188-1.403-2.209-2.191-3.05c-0.802-0.854-1.662-1.557-2.598-2.14
		c-0.938-0.581-2.004-1.085-3.219-1.519v-0.077c1.059-0.31,2.01-0.724,2.849-1.248c0.848-0.524,1.629-1.194,2.347-2.002
		c0.725-0.808,1.39-1.772,1.979-2.902c0.601-1.132,1.188-2.47,1.751-4.035l3.956-10.341c0.161-0.465,0.276-0.866,0.374-1.214
		l0.136-0.944l-0.116-0.544l-0.485-0.381l-0.977-0.226c-0.413-0.053-0.949-0.084-1.622-0.084c-0.718,0-1.293,0.039-1.746,0.11
		c-0.444,0.052-0.801,0.161-1.059,0.284l-0.575,0.499l-0.304,0.685l-3.774,10.852c-0.537,1.563-1.138,2.915-1.822,4.052
		c-0.679,1.144-1.469,2.081-2.341,2.831c-0.885,0.737-1.913,1.292-3.063,1.667c-1.151,0.369-2.489,0.556-4.04,0.556h-2.768V1.693
		l-0.147-0.504l-0.537-0.361c-0.259-0.084-0.602-0.168-1.021-0.22c-0.422-0.071-0.956-0.11-1.599-0.11
		c-0.613,0-1.143,0.039-1.575,0.11c-0.439,0.052-0.79,0.136-1.041,0.22l-0.53,0.361l-0.161,0.504v47.798l0.161,0.536l0.53,0.363
		c0.251,0.09,0.602,0.174,1.041,0.232c0.433,0.064,0.962,0.098,1.575,0.098c0.643,0,1.177-0.034,1.599-0.098
		c0.419-0.058,0.762-0.142,1.021-0.232l0.537-0.363l0.147-0.536V27.723h2.768c1.551,0,2.927,0.187,4.155,0.542
		c1.229,0.362,2.334,0.918,3.291,1.674c0.963,0.757,1.81,1.713,2.559,2.857c0.744,1.163,1.416,2.559,2.036,4.195l4.576,12.151
		l0.322,0.717l0.613,0.472c0.273,0.129,0.635,0.233,1.087,0.291c0.44,0.064,1.035,0.098,1.785,0.098
		c0.639,0,1.168-0.028,1.608-0.079c0.434-0.051,0.776-0.128,1.021-0.225l0.518-0.389l0.153-0.575L369.105,48.736z M320.521,46.466
		L320.521,46.466l-0.271-0.84l-0.448-0.478l-0.562-0.155h-19.726V27.185h16.688l0.563-0.135l0.427-0.432l0.245-0.815
		c0.046-0.33,0.072-0.724,0.072-1.19c0-0.491-0.026-0.912-0.072-1.267l-0.245-0.852l-0.427-0.473l-0.563-0.182h-16.688V6.231h19.461
		l0.556-0.155l0.401-0.479l0.245-0.839c0.072-0.343,0.098-0.751,0.098-1.217c0-0.509-0.025-0.949-0.098-1.286l-0.245-0.864
		l-0.401-0.499l-0.556-0.155h-23.611c-0.583,0-1.145,0.201-1.674,0.6c-0.524,0.389-0.783,1.087-0.783,2.089v44.372
		c0,1.002,0.259,1.7,0.783,2.088c0.529,0.407,1.091,0.607,1.674,0.607h23.875l0.562-0.162l0.448-0.498l0.271-0.865
		c0.038-0.342,0.064-0.751,0.064-1.209C320.585,47.248,320.559,46.815,320.521,46.466 M280.803,46.299L280.803,46.299l-0.258-0.867
		l-0.421-0.504l-0.594-0.168h-17.84V1.733l-0.156-0.544l-0.535-0.361c-0.26-0.084-0.596-0.168-1.022-0.22
		c-0.42-0.071-0.949-0.11-1.596-0.11c-0.614,0-1.138,0.039-1.57,0.11c-0.44,0.052-0.79,0.136-1.048,0.22l-0.53,0.361l-0.155,0.544
		v46.065c0,1.002,0.258,1.7,0.787,2.088c0.524,0.407,1.081,0.607,1.67,0.607h21.995l0.594-0.175l0.421-0.542l0.258-0.886
		c0.052-0.349,0.064-0.77,0.064-1.287C280.867,47.094,280.855,46.654,280.803,46.299 M232.126,33.145L232.126,33.145
		c-0.511,2.41-1.376,4.537-2.572,6.36c-1.202,1.842-2.793,3.291-4.758,4.37c-1.972,1.079-4.414,1.616-7.304,1.616
		c-2.914,0-5.338-0.491-7.264-1.48c-1.938-0.983-3.485-2.373-4.628-4.158c-1.163-1.777-1.984-3.897-2.47-6.359
		c-0.478-2.456-0.724-5.152-0.724-8.073c0-2.636,0.266-5.157,0.783-7.555c0.529-2.399,1.396-4.493,2.618-6.29
		c1.209-1.796,2.792-3.232,4.743-4.311c1.946-1.072,4.35-1.609,7.214-1.609c2.871,0,5.28,0.504,7.22,1.498
		c1.946,1.003,3.509,2.393,4.672,4.176c1.164,1.785,1.997,3.886,2.49,6.303c0.497,2.429,0.75,5.042,0.75,7.86
		C232.896,28.188,232.637,30.74,232.126,33.145 M238.57,14.329c-0.893-3.109-2.23-5.725-4.04-7.847
		c-1.803-2.112-4.071-3.723-6.787-4.82C225.023,0.557,221.842,0,218.171,0c-3.793,0-7.122,0.614-9.96,1.836
		c-2.844,1.215-5.216,2.948-7.116,5.19c-1.895,2.236-3.317,4.964-4.273,8.163c-0.943,3.206-1.409,6.775-1.409,10.69
		c0,4.104,0.427,7.725,1.299,10.886c0.867,3.147,2.199,5.791,3.982,7.918c1.784,2.132,4.04,3.749,6.768,4.86
		c2.733,1.118,5.965,1.681,9.708,1.681c3.8,0,7.116-0.622,9.952-1.823c2.859-1.228,5.217-2.974,7.104-5.237
		c1.882-2.268,3.303-5.022,4.247-8.253c0.956-3.218,1.416-6.851,1.416-10.871C239.889,21.013,239.449,17.446,238.57,14.329"/>
	<path  fill-rule="evenodd" clip-rule="evenodd"  d="M14.469,108.106
		c0,0.247-0.014,0.459-0.041,0.638c-0.027,0.178-0.075,0.328-0.137,0.451c-0.069,0.123-0.144,0.206-0.233,0.262
		c-0.089,0.054-0.185,0.082-0.295,0.082H1.288c-0.309,0-0.603-0.104-0.877-0.31C0.136,109.018,0,108.654,0,108.134v-23.17
		c0-0.521,0.136-0.883,0.411-1.096c0.274-0.206,0.568-0.309,0.877-0.309h12.331c0.11,0,0.206,0.027,0.295,0.082
		c0.089,0.055,0.158,0.137,0.212,0.26c0.048,0.123,0.096,0.274,0.131,0.452c0.034,0.178,0.048,0.404,0.048,0.672
		c0,0.247-0.014,0.452-0.048,0.638c-0.035,0.178-0.083,0.329-0.131,0.444c-0.054,0.11-0.13,0.192-0.212,0.247
		c-0.089,0.056-0.185,0.082-0.295,0.082H3.452v8.14h8.729c0.109,0,0.205,0.027,0.294,0.089c0.083,0.062,0.158,0.144,0.22,0.254
		c0.061,0.108,0.102,0.253,0.13,0.438c0.027,0.192,0.041,0.411,0.041,0.665c0,0.246-0.014,0.452-0.041,0.623
		c-0.028,0.178-0.069,0.315-0.13,0.425c-0.062,0.109-0.137,0.186-0.22,0.233c-0.089,0.048-0.185,0.068-0.294,0.068H3.452v9.29
		h10.311c0.11,0,0.206,0.027,0.295,0.082c0.089,0.055,0.164,0.137,0.233,0.246c0.062,0.117,0.11,0.268,0.137,0.445
		C14.455,107.613,14.469,107.839,14.469,108.106"/>
	<path  fill-rule="evenodd" clip-rule="evenodd"  d="M30.569,108.936
		c-0.055,0.15-0.13,0.273-0.226,0.362c-0.089,0.097-0.219,0.172-0.391,0.221c-0.164,0.054-0.377,0.095-0.644,0.116
		c-0.26,0.021-0.589,0.026-0.993,0.026c-0.295,0-0.548,0-0.767-0.006c-0.227-0.007-0.412-0.028-0.576-0.055
		c-0.157-0.028-0.295-0.056-0.411-0.089c-0.117-0.035-0.212-0.076-0.287-0.132c-0.083-0.054-0.144-0.115-0.192-0.191
		c-0.049-0.075-0.09-0.164-0.131-0.268l-8.495-24.143c-0.103-0.294-0.158-0.527-0.164-0.712c-0.007-0.178,0.048-0.315,0.164-0.411
		c0.124-0.089,0.315-0.151,0.582-0.178c0.268-0.028,0.631-0.041,1.09-0.041c0.37,0,0.671,0.007,0.89,0.026
		c0.219,0.021,0.391,0.063,0.514,0.117c0.117,0.047,0.205,0.123,0.267,0.205c0.062,0.089,0.117,0.199,0.171,0.336l7.448,21.868
		h0.041l7.248-21.827c0.034-0.15,0.082-0.273,0.137-0.363c0.055-0.096,0.151-0.172,0.281-0.219c0.137-0.055,0.322-0.096,0.562-0.117
		c0.239-0.02,0.562-0.026,0.966-0.026c0.411,0,0.74,0.013,0.979,0.048c0.24,0.034,0.405,0.096,0.494,0.192
		c0.089,0.095,0.123,0.231,0.103,0.409c-0.021,0.186-0.083,0.418-0.192,0.713L30.569,108.936z"/>
	<path  fill-rule="evenodd" clip-rule="evenodd"  d="M64.598,96.247
		c0,2.104-0.246,3.994-0.74,5.679c-0.5,1.687-1.24,3.118-2.219,4.304c-0.987,1.178-2.22,2.09-3.707,2.727
		c-1.487,0.637-3.22,0.952-5.2,0.952c-1.952,0-3.638-0.288-5.063-0.87c-1.432-0.582-2.603-1.432-3.535-2.542
		c-0.931-1.11-1.623-2.487-2.075-4.131c-0.46-1.645-0.685-3.535-0.685-5.672c0-2.049,0.246-3.913,0.739-5.584
		c0.5-1.671,1.24-3.09,2.234-4.262c0.986-1.165,2.226-2.068,3.713-2.707c1.48-0.636,3.213-0.951,5.2-0.951
		c1.911,0,3.576,0.288,4.994,0.862c1.418,0.576,2.603,1.412,3.542,2.516c0.945,1.103,1.651,2.466,2.11,4.097
		C64.365,92.287,64.598,94.151,64.598,96.247 M60.94,96.487c0-1.466-0.13-2.836-0.391-4.098c-0.26-1.26-0.692-2.356-1.301-3.287
		c-0.61-0.926-1.419-1.651-2.433-2.173c-1.021-0.521-2.274-0.78-3.768-0.78c-1.5,0-2.754,0.28-3.768,0.842
		c-1.014,0.562-1.842,1.309-2.473,2.241c-0.637,0.938-1.089,2.027-1.363,3.28c-0.274,1.247-0.411,2.557-0.411,3.934
		c0,1.527,0.13,2.925,0.383,4.207c0.254,1.288,0.679,2.391,1.281,3.322c0.597,0.925,1.405,1.644,2.412,2.157
		c1.007,0.515,2.274,0.774,3.795,0.774c1.515,0,2.782-0.28,3.81-0.842c1.027-0.563,1.856-1.316,2.487-2.275
		c0.623-0.952,1.075-2.062,1.343-3.316C60.81,99.221,60.94,97.891,60.94,96.487"/>
	<path  fill-rule="evenodd" clip-rule="evenodd"  d="M83.555,108.024
		c0,0.273-0.014,0.5-0.041,0.678s-0.068,0.336-0.13,0.466c-0.061,0.124-0.13,0.219-0.219,0.281
		c-0.089,0.062-0.192,0.089-0.316,0.089H71.361c-0.309,0-0.603-0.103-0.878-0.308c-0.274-0.212-0.41-0.576-0.41-1.097V84.08
		c0-0.11,0.027-0.205,0.082-0.281c0.054-0.082,0.144-0.144,0.28-0.191c0.131-0.048,0.316-0.089,0.542-0.123
		c0.226-0.035,0.5-0.048,0.822-0.048c0.336,0,0.61,0.013,0.836,0.048c0.219,0.034,0.397,0.075,0.527,0.123
		c0.137,0.048,0.226,0.109,0.281,0.191c0.055,0.076,0.082,0.171,0.082,0.281v22.457h9.324c0.124,0,0.227,0.028,0.316,0.09
		c0.082,0.062,0.158,0.15,0.219,0.26c0.062,0.116,0.103,0.268,0.13,0.46C83.541,107.531,83.555,107.757,83.555,108.024"/>
	<path  fill-rule="evenodd" clip-rule="evenodd"  d="M105.999,99.933
		c0,1.576-0.232,2.987-0.692,4.228c-0.459,1.232-1.123,2.282-1.98,3.138c-0.856,0.857-1.897,1.508-3.131,1.946
		c-1.226,0.444-2.623,0.664-4.193,0.664c-1.431,0-2.733-0.205-3.911-0.623c-1.179-0.411-2.186-1.028-3.029-1.836
		c-0.842-0.809-1.493-1.822-1.945-3.042c-0.459-1.212-0.685-2.617-0.685-4.213V84.08c0-0.109,0.027-0.205,0.082-0.281
		c0.055-0.082,0.144-0.144,0.281-0.192c0.137-0.048,0.308-0.089,0.527-0.122c0.213-0.034,0.493-0.049,0.85-0.049
		c0.322,0,0.596,0.015,0.822,0.049c0.233,0.033,0.411,0.074,0.534,0.122c0.131,0.049,0.22,0.11,0.274,0.192
		c0.055,0.076,0.083,0.172,0.083,0.281v15.688c0,1.199,0.144,2.254,0.438,3.145c0.295,0.897,0.719,1.645,1.274,2.241
		c0.548,0.596,1.22,1.041,2.001,1.342c0.774,0.302,1.651,0.453,2.631,0.453c0.993,0,1.884-0.145,2.665-0.439
		c0.781-0.294,1.438-0.74,1.979-1.328c0.542-0.59,0.953-1.315,1.241-2.186c0.287-0.871,0.431-1.884,0.431-3.049V84.08
		c0-0.109,0.028-0.205,0.082-0.281c0.056-0.082,0.144-0.144,0.282-0.192c0.137-0.048,0.315-0.089,0.534-0.122
		c0.226-0.034,0.5-0.049,0.843-0.049c0.321,0,0.589,0.015,0.815,0.049c0.219,0.033,0.397,0.074,0.521,0.122
		c0.129,0.049,0.226,0.11,0.287,0.192c0.062,0.076,0.089,0.172,0.089,0.281V99.933z"/>
	<path  fill-rule="evenodd" clip-rule="evenodd"  d="M129.127,85.039
		c0,0.254-0.013,0.473-0.041,0.658c-0.027,0.185-0.068,0.336-0.13,0.451c-0.061,0.11-0.13,0.199-0.219,0.247
		c-0.089,0.056-0.185,0.082-0.288,0.082h-7.296v22.54c0,0.109-0.027,0.198-0.083,0.281c-0.054,0.082-0.143,0.144-0.28,0.192
		c-0.13,0.048-0.309,0.089-0.528,0.123c-0.226,0.033-0.5,0.048-0.836,0.048c-0.322,0-0.596-0.015-0.822-0.048
		c-0.226-0.034-0.411-0.075-0.541-0.123c-0.137-0.049-0.226-0.11-0.281-0.192c-0.055-0.083-0.082-0.172-0.082-0.281v-22.54h-7.297
		c-0.102,0-0.198-0.026-0.287-0.082c-0.089-0.048-0.158-0.137-0.213-0.247c-0.047-0.115-0.096-0.267-0.13-0.451
		c-0.034-0.186-0.048-0.404-0.048-0.658c0-0.253,0.014-0.479,0.048-0.671c0.034-0.192,0.083-0.351,0.13-0.467
		c0.055-0.123,0.124-0.212,0.213-0.26c0.089-0.055,0.185-0.082,0.287-0.082h18.046c0.103,0,0.199,0.027,0.288,0.082
		c0.089,0.048,0.158,0.137,0.219,0.26c0.062,0.116,0.103,0.274,0.13,0.467C129.114,84.56,129.127,84.786,129.127,85.039"/>
	<path  fill-rule="evenodd" clip-rule="evenodd"  d="M136.335,109.018
		c0,0.109-0.027,0.205-0.082,0.281c-0.055,0.082-0.144,0.144-0.281,0.192c-0.13,0.048-0.308,0.089-0.528,0.123
		c-0.226,0.033-0.5,0.048-0.835,0.048c-0.322,0-0.596-0.015-0.822-0.048c-0.226-0.034-0.411-0.075-0.542-0.123
		c-0.137-0.049-0.226-0.11-0.281-0.192c-0.054-0.076-0.082-0.172-0.082-0.281V84.081c0-0.11,0.028-0.206,0.089-0.282
		c0.062-0.082,0.165-0.144,0.302-0.192c0.144-0.047,0.322-0.089,0.541-0.123c0.219-0.033,0.486-0.048,0.795-0.048
		c0.335,0,0.609,0.015,0.835,0.048c0.22,0.034,0.398,0.076,0.528,0.123c0.137,0.049,0.226,0.11,0.281,0.192
		c0.055,0.076,0.082,0.172,0.082,0.282V109.018z"/>
	<path  fill-rule="evenodd" clip-rule="evenodd"  d="M164.986,96.247
		c0,2.104-0.246,3.994-0.74,5.679c-0.5,1.687-1.24,3.118-2.219,4.304c-0.987,1.178-2.22,2.09-3.707,2.727
		c-1.487,0.637-3.22,0.952-5.2,0.952c-1.952,0-3.638-0.288-5.063-0.87c-1.432-0.582-2.603-1.432-3.535-2.542
		c-0.931-1.11-1.623-2.487-2.075-4.131c-0.46-1.645-0.685-3.535-0.685-5.672c0-2.049,0.246-3.913,0.739-5.584
		c0.5-1.671,1.24-3.09,2.234-4.262c0.986-1.165,2.226-2.068,3.713-2.707c1.48-0.636,3.213-0.951,5.2-0.951
		c1.911,0,3.576,0.288,4.994,0.862c1.418,0.576,2.603,1.412,3.542,2.516c0.946,1.103,1.651,2.466,2.11,4.097
		C164.753,92.287,164.986,94.151,164.986,96.247 M161.328,96.487c0-1.466-0.13-2.836-0.391-4.098
		c-0.26-1.26-0.692-2.356-1.301-3.287c-0.61-0.926-1.418-1.651-2.433-2.173c-1.02-0.521-2.274-0.78-3.768-0.78
		c-1.5,0-2.753,0.28-3.768,0.842c-1.014,0.562-1.842,1.309-2.473,2.241c-0.637,0.938-1.089,2.027-1.363,3.28
		c-0.274,1.247-0.411,2.557-0.411,3.934c0,1.527,0.13,2.925,0.384,4.207c0.253,1.288,0.678,2.391,1.281,3.322
		c0.596,0.925,1.404,1.644,2.411,2.157c1.007,0.515,2.274,0.774,3.796,0.774c1.514,0,2.781-0.28,3.809-0.842
		c1.027-0.563,1.856-1.316,2.487-2.275c0.623-0.952,1.075-2.062,1.343-3.316C161.198,99.221,161.328,97.891,161.328,96.487"/>
	<path  fill-rule="evenodd" clip-rule="evenodd"  d="M190.108,108.093
		c0,0.268-0.048,0.5-0.137,0.685c-0.089,0.187-0.205,0.343-0.349,0.46c-0.144,0.123-0.308,0.205-0.487,0.26
		c-0.184,0.055-0.363,0.082-0.541,0.082h-1.144c-0.356,0-0.672-0.033-0.945-0.109c-0.268-0.075-0.521-0.205-0.768-0.397
		c-0.239-0.191-0.486-0.452-0.726-0.781c-0.239-0.328-0.5-0.761-0.774-1.28l-7.934-14.778c-0.417-0.76-0.835-1.562-1.254-2.397
		c-0.424-0.837-0.815-1.651-1.178-2.439h-0.041c0.028,0.96,0.048,1.946,0.062,2.953c0.014,1,0.02,2,0.02,2.987v15.682
		c0,0.096-0.027,0.185-0.082,0.273c-0.061,0.082-0.158,0.151-0.287,0.199c-0.138,0.048-0.309,0.089-0.528,0.123
		c-0.219,0.035-0.5,0.048-0.836,0.048c-0.342,0-0.623-0.013-0.842-0.048c-0.22-0.034-0.391-0.075-0.514-0.123
		c-0.131-0.048-0.219-0.117-0.281-0.199c-0.055-0.089-0.082-0.178-0.082-0.273V85.046c0-0.534,0.15-0.917,0.459-1.145
		c0.301-0.226,0.63-0.342,0.993-0.342h1.699c0.397,0,0.733,0.034,1,0.102c0.274,0.063,0.514,0.18,0.726,0.329
		c0.213,0.151,0.425,0.371,0.624,0.645c0.199,0.273,0.411,0.617,0.63,1.035l6.098,11.399c0.377,0.699,0.74,1.377,1.089,2.042
		c0.35,0.664,0.692,1.315,1.014,1.959c0.322,0.637,0.644,1.274,0.959,1.897c0.322,0.617,0.63,1.248,0.945,1.878h0.021
		c-0.027-1.063-0.048-2.158-0.055-3.302c-0.007-1.145-0.007-2.247-0.007-3.304V84.162c0-0.096,0.028-0.185,0.082-0.261
		c0.062-0.082,0.158-0.149,0.288-0.212c0.137-0.062,0.315-0.103,0.528-0.13c0.219-0.028,0.507-0.041,0.863-0.041
		c0.308,0,0.576,0.013,0.801,0.041c0.227,0.027,0.405,0.068,0.528,0.13c0.131,0.063,0.219,0.13,0.281,0.212
		c0.055,0.076,0.082,0.165,0.082,0.261V108.093z"/>
	<path  fill-rule="evenodd" clip-rule="evenodd"  d="M216.444,108.319
		c0.103,0.295,0.164,0.526,0.171,0.713c0.007,0.178-0.048,0.313-0.151,0.411c-0.109,0.089-0.287,0.149-0.534,0.177
		c-0.247,0.028-0.575,0.041-0.994,0.041c-0.41,0-0.746-0.006-0.993-0.027c-0.246-0.02-0.431-0.055-0.562-0.102
		c-0.13-0.048-0.219-0.11-0.281-0.192c-0.061-0.082-0.116-0.179-0.171-0.302l-2.227-6.323h-10.796l-2.131,6.241
		c-0.041,0.123-0.089,0.226-0.158,0.315c-0.068,0.089-0.165,0.157-0.294,0.22c-0.124,0.061-0.309,0.102-0.541,0.129
		c-0.233,0.028-0.535,0.041-0.912,0.041c-0.39,0-0.706-0.013-0.952-0.047c-0.247-0.035-0.425-0.097-0.521-0.192
		c-0.102-0.096-0.151-0.232-0.144-0.411c0.007-0.185,0.062-0.418,0.172-0.713l8.707-24.136c0.055-0.15,0.131-0.274,0.213-0.363
		c0.089-0.096,0.212-0.171,0.383-0.219c0.165-0.055,0.377-0.096,0.644-0.117c0.261-0.02,0.589-0.027,0.994-0.027
		c0.424,0,0.781,0.008,1.062,0.027c0.28,0.021,0.506,0.063,0.678,0.117c0.178,0.048,0.308,0.13,0.404,0.226
		c0.096,0.103,0.171,0.227,0.219,0.37L216.444,108.319z M205.263,87.012h-0.021l-4.473,12.949h9.029L205.263,87.012z"/>
	<path  fill-rule="evenodd" clip-rule="evenodd"  d="M238.107,109.018
		c0,0.11-0.02,0.198-0.061,0.281c-0.042,0.082-0.124,0.15-0.261,0.205c-0.13,0.048-0.322,0.089-0.562,0.117
		c-0.24,0.027-0.562,0.041-0.959,0.041c-0.349,0-0.637-0.014-0.856-0.041c-0.219-0.028-0.397-0.069-0.535-0.131
		c-0.13-0.062-0.233-0.144-0.308-0.254c-0.075-0.103-0.137-0.238-0.192-0.396l-2.384-6.132c-0.281-0.699-0.575-1.336-0.877-1.918
		c-0.301-0.582-0.658-1.082-1.076-1.508c-0.411-0.425-0.904-0.746-1.465-0.986c-0.562-0.233-1.241-0.35-2.028-0.35h-2.309v11.071
		c0,0.11-0.028,0.198-0.089,0.281c-0.062,0.082-0.158,0.144-0.281,0.191c-0.13,0.049-0.302,0.09-0.521,0.123
		c-0.226,0.035-0.5,0.049-0.835,0.049c-0.336,0-0.61-0.014-0.836-0.049c-0.22-0.033-0.398-0.074-0.528-0.123
		c-0.137-0.048-0.226-0.109-0.281-0.191c-0.055-0.076-0.082-0.171-0.082-0.281V84.964c0-0.521,0.137-0.883,0.411-1.096
		c0.274-0.206,0.569-0.309,0.877-0.309h5.522c0.657,0,1.199,0.013,1.637,0.047c0.432,0.035,0.823,0.076,1.172,0.11
		c1.007,0.178,1.891,0.453,2.665,0.822c0.767,0.377,1.411,0.85,1.932,1.425c0.527,0.576,0.918,1.232,1.178,1.979
		c0.26,0.74,0.391,1.563,0.391,2.459c0,0.864-0.117,1.646-0.35,2.337c-0.24,0.686-0.576,1.296-1.014,1.822
		c-0.445,0.528-0.973,0.987-1.589,1.378c-0.617,0.383-1.302,0.712-2.069,0.979c0.431,0.191,0.815,0.425,1.164,0.713
		c0.35,0.288,0.672,0.637,0.973,1.034c0.302,0.403,0.59,0.87,0.856,1.391c0.268,0.521,0.535,1.11,0.802,1.767l2.33,5.729
		c0.185,0.479,0.308,0.822,0.356,1.014C238.079,108.758,238.107,108.907,238.107,109.018 M232.907,90.753
		c0-1.015-0.226-1.877-0.685-2.583c-0.452-0.698-1.212-1.206-2.288-1.515c-0.336-0.095-0.713-0.156-1.131-0.197
		c-0.424-0.041-0.972-0.063-1.658-0.063h-2.911v8.755h3.37c0.912,0,1.699-0.108,2.364-0.328c0.658-0.226,1.212-0.534,1.651-0.925
		c0.445-0.396,0.767-0.862,0.98-1.397C232.804,91.966,232.907,91.383,232.907,90.753"/>
	<path  fill-rule="evenodd" clip-rule="evenodd"  d="M250.761,99.439v9.578
		c0,0.11-0.028,0.205-0.083,0.281c-0.047,0.082-0.143,0.144-0.273,0.191c-0.137,0.049-0.315,0.09-0.541,0.123
		c-0.227,0.034-0.501,0.049-0.816,0.049c-0.336,0-0.61-0.015-0.829-0.049c-0.219-0.033-0.404-0.074-0.541-0.123
		c-0.137-0.048-0.24-0.109-0.288-0.191c-0.055-0.076-0.082-0.171-0.082-0.281v-9.578l-7.344-14.661
		c-0.151-0.308-0.24-0.548-0.274-0.719c-0.034-0.178,0-0.308,0.102-0.405c0.096-0.089,0.281-0.149,0.542-0.177
		c0.26-0.028,0.61-0.041,1.055-0.041c0.397,0,0.726,0.013,0.973,0.041c0.246,0.027,0.445,0.062,0.588,0.109
		c0.151,0.048,0.261,0.116,0.336,0.199c0.069,0.089,0.144,0.197,0.206,0.336l3.597,7.467c0.328,0.712,0.664,1.452,1,2.226
		c0.329,0.782,0.671,1.563,1.014,2.351h0.041c0.308-0.761,0.623-1.521,0.946-2.274c0.328-0.761,0.657-1.508,0.993-2.241l3.611-7.508
		c0.041-0.137,0.095-0.253,0.171-0.343c0.075-0.096,0.178-0.164,0.301-0.212c0.13-0.048,0.308-0.082,0.534-0.109
		c0.227-0.028,0.514-0.041,0.864-0.041c0.479,0,0.856,0.013,1.13,0.047c0.274,0.035,0.466,0.097,0.576,0.192
		c0.102,0.096,0.143,0.226,0.109,0.405c-0.034,0.171-0.123,0.402-0.274,0.697L250.761,99.439z"/>
	<path  fill-rule="evenodd" clip-rule="evenodd"  d="M300.561,108.319
		c0.103,0.295,0.164,0.526,0.171,0.713c0.007,0.178-0.048,0.313-0.151,0.411c-0.109,0.089-0.287,0.149-0.534,0.177
		c-0.247,0.028-0.575,0.041-0.994,0.041c-0.41,0-0.746-0.006-0.993-0.027c-0.246-0.02-0.431-0.055-0.562-0.102
		c-0.13-0.048-0.219-0.11-0.281-0.192c-0.061-0.082-0.116-0.179-0.171-0.302l-2.227-6.323h-10.796l-2.131,6.241
		c-0.041,0.123-0.089,0.226-0.158,0.315c-0.068,0.089-0.165,0.157-0.294,0.22c-0.124,0.061-0.309,0.102-0.541,0.129
		c-0.233,0.028-0.535,0.041-0.912,0.041c-0.39,0-0.706-0.013-0.952-0.047c-0.247-0.035-0.425-0.097-0.521-0.192
		c-0.102-0.096-0.151-0.232-0.144-0.411c0.007-0.185,0.062-0.418,0.172-0.713l8.707-24.136c0.055-0.15,0.131-0.274,0.213-0.363
		c0.089-0.096,0.212-0.171,0.383-0.219c0.165-0.055,0.377-0.096,0.644-0.117c0.261-0.02,0.589-0.027,0.994-0.027
		c0.424,0,0.781,0.008,1.062,0.027c0.28,0.021,0.506,0.063,0.678,0.117c0.178,0.048,0.308,0.13,0.404,0.226
		c0.096,0.103,0.171,0.227,0.219,0.37L300.561,108.319z M289.38,87.012h-0.021l-4.473,12.949h9.029L289.38,87.012z"/>
	<path  fill-rule="evenodd" clip-rule="evenodd"  d="M322.224,109.018
		c0,0.11-0.021,0.198-0.062,0.281c-0.042,0.082-0.124,0.15-0.261,0.205c-0.13,0.048-0.322,0.089-0.562,0.117
		c-0.24,0.027-0.563,0.041-0.959,0.041c-0.35,0-0.638-0.014-0.856-0.041c-0.219-0.028-0.396-0.069-0.535-0.131
		c-0.13-0.062-0.232-0.144-0.308-0.254c-0.075-0.103-0.137-0.238-0.192-0.396l-2.384-6.132c-0.281-0.699-0.575-1.336-0.877-1.918
		c-0.301-0.582-0.658-1.082-1.076-1.508c-0.411-0.425-0.904-0.746-1.465-0.986c-0.562-0.233-1.241-0.35-2.028-0.35h-2.309v11.071
		c0,0.11-0.028,0.198-0.089,0.281c-0.062,0.082-0.158,0.144-0.281,0.191c-0.13,0.049-0.302,0.09-0.521,0.123
		c-0.226,0.035-0.5,0.049-0.835,0.049c-0.336,0-0.61-0.014-0.836-0.049c-0.22-0.033-0.398-0.074-0.528-0.123
		c-0.137-0.048-0.226-0.109-0.281-0.191c-0.055-0.076-0.082-0.171-0.082-0.281V84.964c0-0.521,0.137-0.883,0.411-1.096
		c0.274-0.206,0.569-0.309,0.877-0.309h5.522c0.657,0,1.198,0.013,1.637,0.047c0.432,0.035,0.823,0.076,1.172,0.11
		c1.007,0.178,1.891,0.453,2.665,0.822c0.767,0.377,1.411,0.85,1.932,1.425c0.527,0.576,0.918,1.232,1.178,1.979
		c0.261,0.74,0.392,1.563,0.392,2.459c0,0.864-0.117,1.646-0.351,2.337c-0.239,0.686-0.575,1.296-1.014,1.822
		c-0.445,0.528-0.973,0.987-1.589,1.378c-0.617,0.383-1.302,0.712-2.069,0.979c0.431,0.191,0.815,0.425,1.164,0.713
		c0.35,0.288,0.672,0.637,0.973,1.034c0.302,0.403,0.59,0.87,0.856,1.391c0.269,0.521,0.535,1.11,0.802,1.767l2.33,5.729
		c0.186,0.479,0.309,0.822,0.356,1.014C322.195,108.758,322.224,108.907,322.224,109.018 M317.023,90.753
		c0-1.015-0.226-1.877-0.685-2.583c-0.452-0.698-1.212-1.206-2.288-1.515c-0.336-0.095-0.713-0.156-1.131-0.197
		c-0.424-0.041-0.972-0.063-1.658-0.063h-2.911v8.755h3.37c0.912,0,1.699-0.108,2.364-0.328c0.658-0.226,1.212-0.534,1.651-0.925
		c0.445-0.396,0.767-0.862,0.98-1.397C316.92,91.966,317.023,91.383,317.023,90.753"/>
	<path  fill-rule="evenodd" clip-rule="evenodd"  d="M344.202,105.88
		c0,0.212-0.008,0.397-0.021,0.563c-0.013,0.156-0.034,0.294-0.068,0.417c-0.034,0.117-0.075,0.227-0.13,0.321
		c-0.055,0.091-0.15,0.206-0.28,0.337c-0.138,0.137-0.419,0.343-0.844,0.616c-0.431,0.274-0.966,0.541-1.603,0.802
		s-1.364,0.479-2.187,0.657c-0.828,0.186-1.726,0.274-2.706,0.274c-1.685,0-3.213-0.281-4.568-0.843
		c-1.357-0.562-2.521-1.392-3.475-2.493c-0.959-1.096-1.698-2.453-2.213-4.063c-0.513-1.616-0.773-3.474-0.773-5.577
		c0-2.157,0.28-4.075,0.836-5.768c0.555-1.685,1.336-3.118,2.343-4.289s2.206-2.062,3.61-2.679c1.397-0.616,2.954-0.924,4.651-0.924
		c0.754,0,1.487,0.067,2.193,0.205c0.712,0.144,1.37,0.314,1.973,0.526c0.604,0.213,1.138,0.459,1.61,0.74
		c0.465,0.274,0.794,0.507,0.973,0.685c0.185,0.18,0.301,0.316,0.356,0.411c0.055,0.089,0.096,0.199,0.13,0.329
		s0.062,0.281,0.082,0.452c0.021,0.179,0.028,0.384,0.028,0.624c0,0.274-0.015,0.5-0.042,0.685c-0.027,0.192-0.068,0.35-0.123,0.479
		c-0.049,0.124-0.116,0.22-0.191,0.282c-0.069,0.061-0.165,0.088-0.268,0.088c-0.192,0-0.452-0.13-0.794-0.391
		c-0.337-0.26-0.769-0.548-1.303-0.862c-0.535-0.315-1.179-0.604-1.938-0.863c-0.768-0.261-1.68-0.391-2.74-0.391
		c-1.165,0-2.22,0.232-3.165,0.691c-0.953,0.466-1.768,1.145-2.439,2.041c-0.672,0.898-1.198,1.994-1.569,3.289
		c-0.369,1.295-0.555,2.774-0.555,4.434c0,1.65,0.179,3.109,0.534,4.378c0.356,1.267,0.87,2.329,1.535,3.178
		c0.664,0.85,1.486,1.494,2.452,1.932c0.973,0.433,2.069,0.651,3.295,0.651c1.035,0,1.946-0.13,2.72-0.383
		c0.775-0.254,1.433-0.535,1.974-0.851c0.549-0.314,0.994-0.596,1.343-0.849c0.357-0.254,0.63-0.384,0.829-0.384
		c0.096,0,0.178,0.021,0.247,0.062c0.068,0.041,0.116,0.116,0.157,0.227c0.042,0.115,0.075,0.273,0.097,0.472
		C344.194,105.318,344.202,105.571,344.202,105.88"/>
	<path  fill-rule="evenodd" clip-rule="evenodd"  d="M367.475,109.018
		c0,0.109-0.027,0.205-0.082,0.281c-0.056,0.082-0.145,0.144-0.281,0.192c-0.137,0.048-0.315,0.089-0.534,0.123
		c-0.227,0.033-0.494,0.048-0.815,0.048c-0.356,0-0.638-0.015-0.85-0.048c-0.219-0.034-0.391-0.075-0.527-0.123
		c-0.138-0.049-0.227-0.11-0.281-0.192c-0.055-0.076-0.082-0.172-0.082-0.281V97.495h-11.797v11.522
		c0,0.109-0.027,0.205-0.083,0.281c-0.055,0.082-0.144,0.144-0.28,0.192c-0.13,0.048-0.309,0.089-0.528,0.123
		c-0.226,0.033-0.5,0.048-0.836,0.048c-0.321,0-0.596-0.015-0.822-0.048c-0.226-0.034-0.41-0.075-0.541-0.123
		c-0.137-0.049-0.226-0.11-0.28-0.192c-0.056-0.076-0.082-0.172-0.082-0.281V84.081c0-0.11,0.026-0.206,0.082-0.282
		c0.055-0.082,0.144-0.144,0.28-0.192c0.131-0.047,0.315-0.089,0.541-0.123c0.227-0.033,0.501-0.048,0.822-0.048
		c0.336,0,0.61,0.015,0.836,0.048c0.22,0.034,0.398,0.076,0.528,0.123c0.137,0.049,0.226,0.11,0.28,0.192
		c0.056,0.083,0.083,0.172,0.083,0.282v10.413h11.797V84.081c0-0.11,0.027-0.199,0.082-0.282c0.055-0.082,0.144-0.144,0.281-0.192
		c0.137-0.047,0.309-0.089,0.527-0.123c0.212-0.033,0.493-0.048,0.85-0.048c0.321,0,0.589,0.015,0.815,0.048
		c0.219,0.034,0.397,0.076,0.534,0.123c0.137,0.049,0.226,0.11,0.281,0.192c0.055,0.076,0.082,0.172,0.082,0.282V109.018z"/>
	<path  fill-rule="evenodd" clip-rule="evenodd"  d="M377.833,109.018
		c0,0.109-0.027,0.205-0.082,0.281c-0.055,0.082-0.144,0.144-0.281,0.192c-0.13,0.048-0.308,0.089-0.527,0.123
		c-0.227,0.033-0.5,0.048-0.836,0.048c-0.321,0-0.596-0.015-0.822-0.048c-0.226-0.034-0.41-0.075-0.541-0.123
		c-0.137-0.049-0.226-0.11-0.281-0.192c-0.054-0.076-0.082-0.172-0.082-0.281V84.081c0-0.11,0.028-0.206,0.089-0.282
		c0.063-0.082,0.164-0.144,0.302-0.192c0.145-0.047,0.322-0.089,0.542-0.123c0.219-0.033,0.485-0.048,0.794-0.048
		c0.336,0,0.609,0.015,0.836,0.048c0.22,0.034,0.397,0.076,0.527,0.123c0.138,0.049,0.227,0.11,0.281,0.192
		c0.055,0.076,0.082,0.172,0.082,0.282V109.018z"/>
	<path  fill-rule="evenodd" clip-rule="evenodd"  d="M401.018,85.039
		c0,0.254-0.015,0.473-0.041,0.658c-0.027,0.185-0.068,0.336-0.132,0.451c-0.061,0.11-0.13,0.199-0.219,0.247
		c-0.089,0.056-0.185,0.082-0.288,0.082h-7.296v22.54c0,0.109-0.026,0.198-0.082,0.281c-0.055,0.082-0.144,0.144-0.28,0.192
		c-0.131,0.048-0.309,0.089-0.527,0.123c-0.228,0.033-0.501,0.048-0.837,0.048c-0.321,0-0.596-0.015-0.821-0.048
		c-0.227-0.034-0.412-0.075-0.541-0.123c-0.138-0.049-0.227-0.11-0.281-0.192c-0.055-0.083-0.083-0.172-0.083-0.281v-22.54h-7.296
		c-0.103,0-0.199-0.026-0.288-0.082c-0.089-0.048-0.156-0.137-0.212-0.247c-0.048-0.115-0.096-0.267-0.13-0.451
		c-0.035-0.186-0.048-0.404-0.048-0.658c0-0.253,0.013-0.479,0.048-0.671c0.034-0.192,0.082-0.351,0.13-0.467
		c0.056-0.123,0.123-0.212,0.212-0.26c0.089-0.055,0.186-0.082,0.288-0.082h18.045c0.104,0,0.199,0.027,0.288,0.082
		c0.089,0.048,0.158,0.137,0.219,0.26c0.063,0.116,0.104,0.274,0.132,0.467C401.003,84.56,401.018,84.786,401.018,85.039"/>
	<path  fill-rule="evenodd" clip-rule="evenodd"  d="M419.241,108.106
		c0,0.247-0.015,0.459-0.041,0.638c-0.027,0.178-0.075,0.328-0.139,0.451c-0.067,0.123-0.143,0.206-0.231,0.262
		c-0.089,0.054-0.186,0.082-0.295,0.082h-12.477c-0.308,0-0.602-0.104-0.877-0.31c-0.273-0.212-0.411-0.575-0.411-1.096v-23.17
		c0-0.521,0.138-0.883,0.411-1.096c0.275-0.206,0.569-0.309,0.877-0.309h12.332c0.11,0,0.205,0.027,0.295,0.082
		c0.089,0.055,0.158,0.137,0.212,0.26c0.048,0.123,0.097,0.274,0.13,0.452c0.034,0.178,0.05,0.404,0.05,0.672
		c0,0.247-0.016,0.452-0.05,0.638c-0.033,0.178-0.082,0.329-0.13,0.444c-0.054,0.11-0.13,0.192-0.212,0.247
		c-0.09,0.056-0.185,0.082-0.295,0.082h-10.167v8.14h8.729c0.108,0,0.205,0.027,0.294,0.089c0.083,0.062,0.157,0.144,0.22,0.254
		c0.061,0.108,0.102,0.253,0.129,0.438c0.028,0.192,0.041,0.411,0.041,0.665c0,0.246-0.013,0.452-0.041,0.623
		c-0.027,0.178-0.068,0.315-0.129,0.425c-0.063,0.109-0.137,0.186-0.22,0.233c-0.089,0.048-0.186,0.068-0.294,0.068h-8.729v9.29
		h10.312c0.109,0,0.206,0.027,0.295,0.082s0.164,0.137,0.231,0.246c0.063,0.117,0.111,0.268,0.139,0.445
		C419.227,107.613,419.241,107.839,419.241,108.106"/>
	<path  fill-rule="evenodd" clip-rule="evenodd"  d="M441.706,105.88
		c0,0.212-0.009,0.397-0.021,0.563c-0.013,0.156-0.035,0.294-0.069,0.417c-0.033,0.117-0.074,0.227-0.13,0.321
		c-0.054,0.091-0.149,0.206-0.28,0.337c-0.138,0.137-0.419,0.343-0.844,0.616c-0.43,0.274-0.966,0.541-1.602,0.802
		c-0.639,0.261-1.364,0.479-2.187,0.657c-0.829,0.186-1.726,0.274-2.706,0.274c-1.685,0-3.213-0.281-4.568-0.843
		c-1.358-0.562-2.522-1.392-3.475-2.493c-0.959-1.096-1.698-2.453-2.213-4.063c-0.513-1.616-0.773-3.474-0.773-5.577
		c0-2.157,0.28-4.075,0.836-5.768c0.554-1.685,1.336-3.118,2.343-4.289c1.006-1.171,2.206-2.062,3.61-2.679
		c1.396-0.616,2.953-0.924,4.651-0.924c0.753,0,1.487,0.067,2.193,0.205c0.712,0.144,1.37,0.314,1.972,0.526
		c0.604,0.213,1.139,0.459,1.611,0.74c0.465,0.274,0.794,0.507,0.972,0.685c0.186,0.18,0.302,0.316,0.357,0.411
		c0.054,0.089,0.095,0.199,0.13,0.329c0.034,0.13,0.061,0.281,0.082,0.452c0.02,0.179,0.027,0.384,0.027,0.624
		c0,0.274-0.015,0.5-0.041,0.685c-0.027,0.192-0.068,0.35-0.123,0.479c-0.049,0.124-0.116,0.22-0.191,0.282
		c-0.07,0.061-0.166,0.088-0.268,0.088c-0.192,0-0.452-0.13-0.795-0.391c-0.337-0.26-0.769-0.548-1.303-0.862
		c-0.534-0.315-1.178-0.604-1.938-0.863c-0.769-0.261-1.68-0.391-2.74-0.391c-1.165,0-2.22,0.232-3.166,0.691
		c-0.953,0.466-1.767,1.145-2.439,2.041c-0.671,0.898-1.198,1.994-1.568,3.289c-0.369,1.295-0.556,2.774-0.556,4.434
		c0,1.65,0.18,3.109,0.534,4.378c0.357,1.267,0.87,2.329,1.535,3.178c0.664,0.85,1.487,1.494,2.453,1.932
		c0.973,0.433,2.069,0.651,3.295,0.651c1.035,0,1.946-0.13,2.72-0.383c0.775-0.254,1.433-0.535,1.974-0.851
		c0.549-0.314,0.994-0.596,1.343-0.849c0.356-0.254,0.63-0.384,0.829-0.384c0.095,0,0.178,0.021,0.247,0.062
		c0.067,0.041,0.116,0.116,0.157,0.227c0.041,0.115,0.074,0.273,0.096,0.472C441.697,105.318,441.706,105.571,441.706,105.88"/>
	<path  fill-rule="evenodd" clip-rule="evenodd"  d="M462.759,85.039
		c0,0.254-0.015,0.473-0.041,0.658c-0.027,0.185-0.068,0.336-0.131,0.451c-0.062,0.11-0.131,0.199-0.22,0.247
		c-0.088,0.056-0.184,0.082-0.288,0.082h-7.296v22.54c0,0.109-0.026,0.198-0.082,0.281c-0.055,0.082-0.144,0.144-0.281,0.192
		c-0.13,0.048-0.308,0.089-0.526,0.123c-0.228,0.033-0.5,0.048-0.836,0.048c-0.322,0-0.598-0.015-0.822-0.048
		c-0.226-0.034-0.412-0.075-0.541-0.123c-0.137-0.049-0.227-0.11-0.282-0.192c-0.054-0.083-0.082-0.172-0.082-0.281v-22.54h-7.296
		c-0.103,0-0.199-0.026-0.288-0.082c-0.089-0.048-0.156-0.137-0.213-0.247c-0.047-0.115-0.095-0.267-0.129-0.451
		c-0.035-0.186-0.048-0.404-0.048-0.658c0-0.253,0.013-0.479,0.048-0.671c0.034-0.192,0.082-0.351,0.129-0.467
		c0.057-0.123,0.124-0.212,0.213-0.26c0.089-0.055,0.186-0.082,0.288-0.082h18.045c0.104,0,0.2,0.027,0.288,0.082
		c0.089,0.048,0.158,0.137,0.22,0.26c0.063,0.116,0.104,0.274,0.131,0.467C462.744,84.56,462.759,84.786,462.759,85.039"/>
	<path  fill-rule="evenodd" clip-rule="evenodd"  d="M486.038,99.933
		c0,1.576-0.232,2.987-0.691,4.228c-0.459,1.232-1.124,2.282-1.981,3.138c-0.855,0.857-1.896,1.508-3.131,1.946
		c-1.225,0.444-2.623,0.664-4.191,0.664c-1.433,0-2.734-0.205-3.912-0.623c-1.18-0.411-2.187-1.028-3.029-1.836
		c-0.842-0.809-1.493-1.822-1.945-3.042c-0.459-1.212-0.685-2.617-0.685-4.213V84.08c0-0.109,0.028-0.205,0.083-0.281
		c0.054-0.082,0.143-0.144,0.28-0.192c0.137-0.048,0.308-0.089,0.526-0.122c0.213-0.034,0.493-0.049,0.851-0.049
		c0.321,0,0.597,0.015,0.821,0.049c0.233,0.033,0.411,0.074,0.534,0.122c0.131,0.049,0.221,0.11,0.275,0.192
		c0.054,0.076,0.082,0.172,0.082,0.281v15.688c0,1.199,0.143,2.254,0.438,3.145c0.295,0.897,0.721,1.645,1.275,2.241
		c0.547,0.596,1.219,1.041,2.001,1.342c0.773,0.302,1.65,0.453,2.63,0.453c0.994,0,1.884-0.145,2.665-0.439
		c0.781-0.294,1.439-0.74,1.98-1.328c0.541-0.59,0.951-1.315,1.239-2.186c0.287-0.871,0.433-1.884,0.433-3.049V84.08
		c0-0.109,0.026-0.205,0.082-0.281c0.055-0.082,0.143-0.144,0.279-0.192c0.139-0.048,0.316-0.089,0.535-0.122
		c0.227-0.034,0.5-0.049,0.844-0.049c0.32,0,0.589,0.015,0.814,0.049c0.219,0.033,0.397,0.074,0.521,0.122
		c0.13,0.049,0.226,0.11,0.286,0.192c0.063,0.076,0.09,0.172,0.09,0.281V99.933z"/>
	<path  fill-rule="evenodd" clip-rule="evenodd"  d="M510.215,109.018
		c0,0.11-0.02,0.198-0.061,0.281c-0.041,0.082-0.123,0.15-0.261,0.205c-0.13,0.048-0.322,0.089-0.563,0.117
		c-0.24,0.027-0.561,0.041-0.959,0.041c-0.349,0-0.637-0.014-0.855-0.041c-0.221-0.028-0.397-0.069-0.535-0.131
		c-0.13-0.062-0.233-0.144-0.309-0.254c-0.074-0.103-0.137-0.238-0.191-0.396l-2.384-6.132c-0.281-0.699-0.575-1.336-0.878-1.918
		c-0.302-0.582-0.657-1.082-1.074-1.508c-0.411-0.425-0.904-0.746-1.468-0.986c-0.561-0.233-1.239-0.35-2.026-0.35h-2.31v11.071
		c0,0.11-0.026,0.198-0.09,0.281c-0.061,0.082-0.157,0.144-0.279,0.191c-0.131,0.049-0.303,0.09-0.521,0.123
		c-0.227,0.035-0.501,0.049-0.836,0.049c-0.336,0-0.611-0.014-0.836-0.049c-0.22-0.033-0.398-0.074-0.528-0.123
		c-0.137-0.048-0.226-0.109-0.281-0.191c-0.055-0.076-0.081-0.171-0.081-0.281V84.964c0-0.521,0.137-0.883,0.41-1.096
		c0.274-0.206,0.569-0.309,0.877-0.309h5.522c0.658,0,1.199,0.013,1.637,0.047c0.433,0.035,0.823,0.076,1.171,0.11
		c1.009,0.178,1.893,0.453,2.666,0.822c0.768,0.377,1.411,0.85,1.933,1.425c0.526,0.576,0.918,1.232,1.178,1.979
		c0.26,0.74,0.39,1.563,0.39,2.459c0,0.864-0.115,1.646-0.349,2.337c-0.24,0.686-0.576,1.296-1.014,1.822
		c-0.445,0.528-0.974,0.987-1.59,1.378c-0.616,0.383-1.302,0.712-2.068,0.979c0.431,0.191,0.814,0.425,1.165,0.713
		c0.349,0.288,0.671,0.637,0.972,1.034c0.301,0.403,0.589,0.87,0.857,1.391c0.267,0.521,0.533,1.11,0.802,1.767l2.329,5.729
		c0.184,0.479,0.308,0.822,0.355,1.014C510.188,108.758,510.215,108.907,510.215,109.018 M505.016,90.753
		c0-1.015-0.227-1.877-0.686-2.583c-0.452-0.698-1.212-1.206-2.288-1.515c-0.336-0.095-0.713-0.156-1.131-0.197
		c-0.424-0.041-0.972-0.063-1.658-0.063h-2.911v8.755h3.37c0.911,0,1.699-0.108,2.364-0.328c0.658-0.226,1.212-0.534,1.651-0.925
		c0.444-0.396,0.767-0.862,0.979-1.397C504.912,91.966,505.016,91.383,505.016,90.753"/>
	<path  fill-rule="evenodd" clip-rule="evenodd"  d="M529.68,108.106
		c0,0.247-0.015,0.459-0.041,0.638c-0.027,0.178-0.076,0.328-0.139,0.451c-0.067,0.123-0.143,0.206-0.231,0.262
		c-0.09,0.054-0.187,0.082-0.295,0.082h-12.477c-0.308,0-0.602-0.104-0.877-0.31c-0.273-0.212-0.411-0.575-0.411-1.096v-23.17
		c0-0.521,0.138-0.883,0.411-1.096c0.275-0.206,0.569-0.309,0.877-0.309h12.332c0.11,0,0.205,0.027,0.294,0.082
		c0.09,0.055,0.159,0.137,0.213,0.26c0.049,0.123,0.097,0.274,0.131,0.452c0.033,0.178,0.048,0.404,0.048,0.672
		c0,0.247-0.015,0.452-0.048,0.638c-0.034,0.178-0.082,0.329-0.131,0.444c-0.054,0.11-0.13,0.192-0.213,0.247
		c-0.089,0.056-0.184,0.082-0.294,0.082h-10.167v8.14h8.729c0.109,0,0.206,0.027,0.295,0.089c0.083,0.062,0.156,0.144,0.22,0.254
		c0.062,0.108,0.102,0.253,0.129,0.438c0.028,0.192,0.041,0.411,0.041,0.665c0,0.246-0.013,0.452-0.041,0.623
		c-0.027,0.178-0.067,0.315-0.129,0.425c-0.063,0.109-0.137,0.186-0.22,0.233c-0.089,0.048-0.186,0.068-0.295,0.068h-8.729v9.29
		h10.312c0.108,0,0.205,0.027,0.295,0.082c0.089,0.055,0.164,0.137,0.231,0.246c0.063,0.117,0.111,0.268,0.139,0.445
		C529.665,107.613,529.68,107.839,529.68,108.106"/>
</g>
</svg>
